<svg width="25" height="25" viewBox="0 0 25 25" fill="none" xmlns="http://www.w3.org/2000/svg">
<path fill-rule="evenodd" clip-rule="evenodd" d="M11.1101 0H13.579C15.5512 0 17.1634 1.54173 17.276 3.48576L17.2823 3.70336V4.93782H20.9857C23.031 4.93782 24.6891 6.59587 24.6891 8.64117V20.9858C24.6891 23.0311 23.031 24.6891 20.9857 24.6891H3.70336C1.65805 24.6891 0 23.0311 0 20.9858V8.64117C0 6.59587 1.65805 4.93782 3.70336 4.93782H7.40674V3.70336C7.40674 1.7311 8.94844 0.11892 10.8925 0.00627995L11.1101 0ZM22.2201 17.2824H2.4689V20.9858C2.4689 21.6675 3.02159 22.2202 3.70336 22.2202H20.9857C21.6675 22.2202 22.2201 21.6675 22.2201 20.9858V17.2824ZM20.9857 7.40677H3.70336C3.02159 7.40677 2.46891 7.95937 2.46891 8.64117V14.8135H22.2201V8.64117C22.2201 7.95937 21.6675 7.40677 20.9857 7.40677ZM13.579 2.4689H11.1101C10.477 2.4689 9.95524 2.94545 9.88394 3.55939L9.87564 3.70336V4.93781H14.8134V3.70336C14.8134 3.07028 14.3369 2.54852 13.7229 2.47721L13.579 2.4689Z" fill="black"/>
</svg>
